<?xml version="1.0" encoding="UTF-8"?>
<!DOCTYPE svg PUBLIC "-//W3C//DTD SVG 1.1//EN" "http://www.w3.org/Graphics/SVG/1.1/DTD/svg11.dtd">
<svg xmlns="http://www.w3.org/2000/svg" version="1.1" width="268px" height="65px" style="shape-rendering:geometricPrecision; text-rendering:geometricPrecision; image-rendering:optimizeQuality; fill-rule:evenodd; clip-rule:evenodd" xmlns:xlink="http://www.w3.org/1999/xlink">
<g><path style="opacity:1" fill="#fbfbfb" d="M -0.5,-0.5 C 88.8333,-0.5 178.167,-0.5 267.5,-0.5C 267.5,21.1667 267.5,42.8333 267.5,64.5C 178.167,64.5 88.8333,64.5 -0.5,64.5C -0.5,42.8333 -0.5,21.1667 -0.5,-0.5 Z"/></g>
<g><path style="opacity:1" fill="#202020" d="M 149.5,16.5 C 151.288,16.2148 152.955,16.5481 154.5,17.5C 153.011,23.3461 155.344,25.6794 161.5,24.5C 162.013,26.2895 162.513,27.9562 163,29.5C 160.129,33.0159 156.629,35.6826 152.5,37.5C 151.167,40.1667 151.167,42.8333 152.5,45.5C 154.861,43.8061 156.861,41.8061 158.5,39.5C 159.314,41.7662 159.814,44.0995 160,46.5C 161.666,45.6598 161.833,46.1598 160.5,48C 157.733,49.8931 154.733,50.8931 151.5,51C 146.941,47.7103 145.275,43.2103 146.5,37.5C 143.381,37.8759 141.047,36.7092 139.5,34C 139.833,33.5 140.167,33 140.5,32.5C 143.245,33.9753 145.412,33.3087 147,30.5C 148.745,26.0043 149.579,21.3376 149.5,16.5 Z"/></g>
<g><path style="opacity:1" fill="#b1b1b1" d="M 152.5,24.5 C 154.973,24.9473 155.14,25.9473 153,27.5C 152.517,26.552 152.351,25.552 152.5,24.5 Z"/></g>
<g><path style="opacity:1" fill="#212121" d="M 171.5,25.5 C 174.518,25.3354 177.518,25.502 180.5,26C 182.5,28 184.5,30 186.5,32C 182.245,37.1977 176.745,39.6977 170,39.5C 168.974,42.5934 169.807,44.9268 172.5,46.5C 177.413,44.463 181.913,41.7964 186,38.5C 185.778,40.4564 184.945,42.2897 183.5,44C 184.624,44.2492 185.624,44.7492 186.5,45.5C 183.593,49.5773 179.593,51.9106 174.5,52.5C 170.581,51.6039 168.081,49.2705 167,45.5C 165.332,38.0011 166.832,31.3345 171.5,25.5 Z"/></g>
<g><path style="opacity:1" fill="#e3e3e3" d="M 172.5,27.5 C 174.645,27.7377 176.312,28.7377 177.5,30.5C 175.909,32.6326 173.909,34.2993 171.5,35.5C 170.102,32.5647 170.435,29.8981 172.5,27.5 Z"/></g>
<g><path style="opacity:1" fill="#1f1f1f" d="M 202.5,13.5 C 203.139,14.0968 203.472,14.9302 203.5,16C 200.771,24.7019 200.105,33.5352 201.5,42.5C 203.937,41.1966 206.104,39.5299 208,37.5C 208.167,37.8333 208.333,38.1667 208.5,38.5C 204.989,42.8601 201.989,47.5268 199.5,52.5C 198.808,51.9747 198.308,51.3081 198,50.5C 197.692,51.3081 197.192,51.9747 196.5,52.5C 195.239,50.5466 194.073,48.5466 193,46.5C 192.112,34.6278 195.278,23.6278 202.5,13.5 Z"/></g>
<g><path style="opacity:1" fill="#1e1e1e" d="M 221.5,13.5 C 222.139,14.0968 222.472,14.9302 222.5,16C 219.771,24.7019 219.105,33.5352 220.5,42.5C 223.094,41.4078 225.261,39.7411 227,37.5C 226.628,39.92 225.295,41.92 223,43.5C 221.596,46.5438 220.096,49.5438 218.5,52.5C 217.808,51.9747 217.308,51.3081 217,50.5C 216.692,51.3081 216.192,51.9747 215.5,52.5C 211.911,47.7013 210.744,42.3679 212,36.5C 213.711,28.1917 216.878,20.525 221.5,13.5 Z"/></g>
<g><path style="opacity:1" fill="#1c1c1c" d="M 230.5,17.5 C 233.553,17.9107 236.553,18.5774 239.5,19.5C 240.452,21.0453 240.785,22.712 240.5,24.5C 237.722,24.0217 235.722,25.0217 234.5,27.5C 236.987,27.7824 239.653,27.7824 242.5,27.5C 241.976,31.9304 240.976,36.2638 239.5,40.5C 239.833,41.1667 240.167,41.8333 240.5,42.5C 241.333,41.5 242.167,40.5 243,39.5C 242.072,44.0616 241.239,48.7283 240.5,53.5C 234.421,52.9149 231.921,49.5816 233,43.5C 233.532,40.7365 234.366,38.0698 235.5,35.5C 233.833,34.8333 232.167,34.1667 230.5,33.5C 230.069,32.7065 229.735,31.8732 229.5,31C 231.595,28.6071 232.928,25.7738 233.5,22.5C 232.395,21.1076 231.061,19.941 229.5,19C 230.056,18.6174 230.389,18.1174 230.5,17.5 Z"/></g>
<g><path style="opacity:1" fill="#1f1f1f" d="M 24.5,17.5 C 27.8049,19.6543 30.3049,22.6543 32,26.5C 34.0094,31.6941 35.5094,37.0275 36.5,42.5C 36.3206,45.1914 35.3206,47.5247 33.5,49.5C 30.8278,47.3274 28.4945,44.8274 26.5,42C 25.1667,41.3333 23.8333,40.6667 22.5,40C 24.5675,39.3131 26.5675,39.4798 28.5,40.5C 29.4656,38.604 29.7989,36.604 29.5,34.5C 21.7813,35.2246 18.1146,39.558 18.5,47.5C 17.1779,47.67 16.0113,47.3366 15,46.5C 13.5783,43.9699 13.245,41.3033 14,38.5C 17.0259,31.251 20.5259,24.251 24.5,17.5 Z"/></g>
<g><path style="opacity:1" fill="#eeeeee" d="M 25.5,23.5 C 27.6928,25.5223 28.6928,28.1889 28.5,31.5C 26.4884,32.0138 24.4884,32.1805 22.5,32C 23.7979,29.2731 24.7979,26.4398 25.5,23.5 Z"/></g>
<g><path style="opacity:1" fill="#1f1f1f" d="M 54.5,25.5 C 58.3695,26.2867 59.0362,27.9534 56.5,30.5C 55.549,29.6744 54.549,29.5078 53.5,30C 51.3333,32.1667 49.1667,34.3333 47,36.5C 45.4167,41.1004 46.9167,42.9337 51.5,42C 55.3862,40.4728 58.8862,38.3061 62,35.5C 62.3446,37.2009 61.6779,38.5342 60,39.5C 59.6892,41.556 59.1892,43.556 58.5,45.5C 58.7093,46.086 59.0426,46.586 59.5,47C 55.2184,51.4866 50.7184,51.6532 46,47.5C 42.7271,42.1004 42.7271,36.767 46,31.5C 48.7361,29.2481 51.5695,27.2481 54.5,25.5 Z"/></g>
<g><path style="opacity:1" fill="#1f1f1f" d="M 78.5,25.5 C 82.3695,26.2867 83.0362,27.9534 80.5,30.5C 79.549,29.6744 78.549,29.5078 77.5,30C 75.3333,32.1667 73.1667,34.3333 71,36.5C 69.4167,41.1004 70.9167,42.9337 75.5,42C 79.3862,40.4728 82.8862,38.3061 86,35.5C 86.3446,37.2009 85.6779,38.5342 84,39.5C 83.6892,41.556 83.1892,43.556 82.5,45.5C 82.7093,46.086 83.0426,46.586 83.5,47C 79.2184,51.4866 74.7184,51.6532 70,47.5C 66.7271,42.1004 66.7271,36.767 70,31.5C 72.7361,29.2481 75.5695,27.2481 78.5,25.5 Z"/></g>
<g><path style="opacity:1" fill="#222222" d="M 134.5,48.5 C 133.5,48.8333 132.833,49.5 132.5,50.5C 129.805,50.067 127.638,48.7337 126,46.5C 124.881,47.5521 124.381,48.7188 124.5,50C 121.833,50.6667 119.167,50.6667 116.5,50C 113.391,41.4913 114.057,33.3246 118.5,25.5C 118.833,26.5 119.167,27.5 119.5,28.5C 117.934,34.0896 117.434,39.7563 118,45.5C 118.423,46.9561 119.256,47.4561 120.5,47C 123.974,40.883 126.474,34.383 128,27.5C 129.356,26.6198 130.856,26.2865 132.5,26.5C 132.151,31.5804 132.151,36.5804 132.5,41.5C 133.833,39.8333 135.167,38.1667 136.5,36.5C 136.833,36.8333 137.167,37.1667 137.5,37.5C 134.943,40.6993 133.943,44.366 134.5,48.5 Z"/></g>
<g><path style="opacity:1" fill="#1f1f1f" d="M 96.5,27.5 C 111.357,26.6165 115.857,32.9498 110,46.5C 101.082,53.0258 94.4152,51.0258 90,40.5C 89.3333,38.8333 89.3333,37.1667 90,35.5C 92.0007,32.6693 94.1673,30.0026 96.5,27.5 Z"/></g>
<g><path style="opacity:1" fill="#f0f0f0" d="M 101.5,30.5 C 102.822,30.33 103.989,30.6634 105,31.5C 106.151,35.8288 105.318,39.6621 102.5,43C 95.6117,43.7446 93.7783,40.9113 97,34.5C 98.3968,32.9297 99.8968,31.5964 101.5,30.5 Z"/></g>
<g><path style="opacity:1" fill="#8d8d8d" d="M 132.5,50.5 C 132.833,49.5 133.5,48.8333 134.5,48.5C 134.435,48.9382 134.601,49.2716 135,49.5C 135.333,48.8333 135.667,48.1667 136,47.5C 136.749,48.635 136.583,49.635 135.5,50.5C 134.313,51.6527 133.313,51.6527 132.5,50.5 Z"/></g>
</svg>
